<svg width="150" height="130" viewBox="0 0 150 130" fill="none" xmlns="http://www.w3.org/2000/svg">
<circle cx="36.2673" cy="11.9406" r="11.9406" fill="#FFC77D"/>
<circle cx="103.941" cy="11.9406" r="11.9406" fill="#FFC77D"/>
<circle cx="36.2673" cy="81.6437" r="11.9406" fill="#FFC77D"/>
<circle cx="103.941" cy="81.6437" r="11.9406" fill="#FFC77D"/>
<circle cx="36.2673" cy="47.7624" r="11.9406" fill="#FFC77D"/>
<circle cx="103.941" cy="47.7624" r="11.9406" fill="#FFC77D"/>
<circle cx="36.2673" cy="117.465" r="11.9406" fill="#FFC77D"/>
<circle cx="103.941" cy="117.465" r="11.9406" fill="#FFC77D"/>
<circle cx="2.43571" cy="11.9406" r="11.9406" fill="#FFC77D"/>
<circle cx="2.43571" cy="81.6437" r="11.9406" fill="#FFC77D"/>
<circle cx="2.43571" cy="47.7624" r="11.9406" fill="#FFC77D"/>
<circle cx="2.43571" cy="117.465" r="11.9406" fill="#FFC77D"/>
<circle cx="70.099" cy="11.9406" r="11.9406" fill="#FFC77D"/>
<circle cx="137.772" cy="11.9406" r="11.9406" fill="#FFC77D"/>
<circle cx="70.099" cy="81.6437" r="11.9406" fill="#FFC77D"/>
<circle cx="137.772" cy="81.6437" r="11.9406" fill="#FFC77D"/>
<circle cx="70.099" cy="47.7624" r="11.9406" fill="#FFC77D"/>
<circle cx="137.772" cy="47.7624" r="11.9406" fill="#FFC77D"/>
<circle cx="70.099" cy="117.465" r="11.9406" fill="#FFC77D"/>
<circle cx="137.772" cy="117.465" r="11.9406" fill="#FFC77D"/>
</svg>
